<svg width="27" height="27" viewBox="0 0 27 27" fill="none" xmlns="http://www.w3.org/2000/svg">
<g id="bell">
<g id="Path">
<path d="M11.2742 6.11979C11.2742 4.92317 12.2442 3.95312 13.4408 3.95312C14.6375 3.95312 15.6075 4.92317 15.6075 6.11979C18.1427 7.31856 19.8094 9.81856 19.9408 12.6198V15.8698C20.1062 17.2357 20.9103 18.4418 22.1075 19.1198H4.77417C5.97138 18.4418 6.7755 17.2357 6.94084 15.8698V12.6198C7.07232 9.81856 8.73899 7.31856 11.2742 6.11979" stroke="#4B465C" stroke-width="2" stroke-linecap="round" stroke-linejoin="round"/>
<path d="M11.2742 6.11979C11.2742 4.92317 12.2442 3.95312 13.4408 3.95312C14.6375 3.95312 15.6075 4.92317 15.6075 6.11979C18.1427 7.31856 19.8094 9.81856 19.9408 12.6198V15.8698C20.1062 17.2357 20.9103 18.4418 22.1075 19.1198H4.77417C5.97138 18.4418 6.7755 17.2357 6.94084 15.8698V12.6198C7.07232 9.81856 8.73899 7.31856 11.2742 6.11979" stroke="white" stroke-opacity="0.2" stroke-width="2" stroke-linecap="round" stroke-linejoin="round"/>
</g>
<g id="Path_2">
<path d="M10.1909 19.1191V20.2025C10.1909 21.9974 11.646 23.4525 13.4409 23.4525C15.2358 23.4525 16.6909 21.9974 16.6909 20.2025V19.1191" stroke="#4B465C" stroke-width="2" stroke-linecap="round" stroke-linejoin="round"/>
<path d="M10.1909 19.1191V20.2025C10.1909 21.9974 11.646 23.4525 13.4409 23.4525C15.2358 23.4525 16.6909 21.9974 16.6909 20.2025V19.1191" stroke="white" stroke-opacity="0.2" stroke-width="2" stroke-linecap="round" stroke-linejoin="round"/>
</g>
</g>
</svg>
