<svg width="22" height="22" viewBox="0 0 22 22" fill="none" xmlns="http://www.w3.org/2000/svg">
<g id="edit">
<g id="Path">
<path d="M8.24984 6.41699H5.49984C4.48732 6.41699 3.6665 7.2378 3.6665 8.25033V16.5003C3.6665 17.5128 4.48732 18.3337 5.49984 18.3337H13.7498C14.7624 18.3337 15.5832 17.5128 15.5832 16.5003V13.7503" stroke="#4B465C" stroke-width="1.5" stroke-linecap="round" stroke-linejoin="round"/>
<path d="M8.24984 6.41699H5.49984C4.48732 6.41699 3.6665 7.2378 3.6665 8.25033V16.5003C3.6665 17.5128 4.48732 18.3337 5.49984 18.3337H13.7498C14.7624 18.3337 15.5832 17.5128 15.5832 16.5003V13.7503" stroke="white" stroke-opacity="0.2" stroke-width="1.5" stroke-linecap="round" stroke-linejoin="round"/>
</g>
<g id="Path_2">
<path d="M8.25 13.7499H11L18.7917 5.95822C19.5511 5.19882 19.5511 3.96761 18.7917 3.20822C18.0323 2.44882 16.8011 2.44882 16.0417 3.20822L8.25 10.9999V13.7499" stroke="#4B465C" stroke-width="1.5" stroke-linecap="round" stroke-linejoin="round"/>
<path d="M8.25 13.7499H11L18.7917 5.95822C19.5511 5.19882 19.5511 3.96761 18.7917 3.20822C18.0323 2.44882 16.8011 2.44882 16.0417 3.20822L8.25 10.9999V13.7499" stroke="white" stroke-opacity="0.2" stroke-width="1.5" stroke-linecap="round" stroke-linejoin="round"/>
</g>
<g id="Path_3">
<path d="M14.6665 4.58301L17.4165 7.33301" stroke="#4B465C" stroke-width="1.5" stroke-linecap="round" stroke-linejoin="round"/>
<path d="M14.6665 4.58301L17.4165 7.33301" stroke="white" stroke-opacity="0.2" stroke-width="1.5" stroke-linecap="round" stroke-linejoin="round"/>
</g>
</g>
</svg>
