<svg width="32" height="35" viewBox="0 0 32 35" fill="none" xmlns="http://www.w3.org/2000/svg">
<g id="Figma-logo (2) 1">
<path id="path0_fill" d="M11.0779 32.2631C13.7948 32.2631 15.9999 30.058 15.9999 27.341V22.4189H11.0779C8.36086 22.4189 6.15576 24.624 6.15576 27.341C6.15576 30.058 8.36086 32.2631 11.0779 32.2631Z" fill="#0ACF83"/>
<path id="path1_fill" d="M6.15576 17.4968C6.15576 14.7798 8.36086 12.5747 11.0779 12.5747H15.9999V22.4189H11.0779C8.36086 22.4189 6.15576 20.2138 6.15576 17.4968Z" fill="#A259FF"/>
<path id="path1_fill_1_" d="M6.15576 7.65256C6.15576 4.93557 8.36086 2.73047 11.0779 2.73047H15.9999V12.5747H11.0779C8.36086 12.5747 6.15576 10.3696 6.15576 7.65256Z" fill="#F24E1E"/>
<path id="path2_fill" d="M16 2.73047H20.9221C23.6391 2.73047 25.8442 4.93557 25.8442 7.65256C25.8442 10.3696 23.6391 12.5747 20.9221 12.5747H16V2.73047Z" fill="#FF7262"/>
<path id="path3_fill" d="M25.8442 17.4968C25.8442 20.2138 23.6391 22.4189 20.9221 22.4189C18.2051 22.4189 16 20.2138 16 17.4968C16 14.7798 18.2051 12.5747 20.9221 12.5747C23.6391 12.5747 25.8442 14.7798 25.8442 17.4968Z" fill="#1ABCFE"/>
</g>
</svg>
