<svg width="22" height="23" viewBox="0 0 22 23" fill="none" xmlns="http://www.w3.org/2000/svg">
<g id="file-dollar">
<g id="Path">
<path d="M12.8334 3.25781V6.92448C12.8334 7.43074 13.2438 7.84115 13.75 7.84115H17.4167" stroke="#4B465C" stroke-width="1.5" stroke-linecap="round" stroke-linejoin="round"/>
<path d="M12.8334 3.25781V6.92448C12.8334 7.43074 13.2438 7.84115 13.75 7.84115H17.4167" stroke="white" stroke-opacity="0.2" stroke-width="1.5" stroke-linecap="round" stroke-linejoin="round"/>
</g>
<g id="Path_2">
<path fill-rule="evenodd" clip-rule="evenodd" d="M15.5834 19.7578H6.41671C5.40419 19.7578 4.58337 18.937 4.58337 17.9245V5.09115C4.58337 4.07862 5.40419 3.25781 6.41671 3.25781H12.8334L17.4167 7.84115V17.9245C17.4167 18.937 16.5959 19.7578 15.5834 19.7578Z" stroke="#4B465C" stroke-width="1.5" stroke-linecap="round" stroke-linejoin="round"/>
<path fill-rule="evenodd" clip-rule="evenodd" d="M15.5834 19.7578H6.41671C5.40419 19.7578 4.58337 18.937 4.58337 17.9245V5.09115C4.58337 4.07862 5.40419 3.25781 6.41671 3.25781H12.8334L17.4167 7.84115V17.9245C17.4167 18.937 16.5959 19.7578 15.5834 19.7578Z" stroke="white" stroke-opacity="0.2" stroke-width="1.5" stroke-linecap="round" stroke-linejoin="round"/>
</g>
<g id="Path_3">
<path d="M12.8333 10.5918H10.5416C9.78223 10.5918 9.16663 11.2074 9.16663 11.9668C9.16663 12.7262 9.78223 13.3418 10.5416 13.3418H11.4583C12.2177 13.3418 12.8333 13.9574 12.8333 14.7168C12.8333 15.4762 12.2177 16.0918 11.4583 16.0918H9.16663" stroke="#4B465C" stroke-width="1.5" stroke-linecap="round" stroke-linejoin="round"/>
<path d="M12.8333 10.5918H10.5416C9.78223 10.5918 9.16663 11.2074 9.16663 11.9668C9.16663 12.7262 9.78223 13.3418 10.5416 13.3418H11.4583C12.2177 13.3418 12.8333 13.9574 12.8333 14.7168C12.8333 15.4762 12.2177 16.0918 11.4583 16.0918H9.16663" stroke="white" stroke-opacity="0.2" stroke-width="1.5" stroke-linecap="round" stroke-linejoin="round"/>
</g>
<g id="Shape">
<path d="M11.75 16.0905C11.75 15.6763 11.4142 15.3405 11 15.3405C10.5857 15.3405 10.25 15.6763 10.25 16.0905H11.75ZM10.25 17.0072C10.25 17.4214 10.5857 17.7572 11 17.7572C11.4142 17.7572 11.75 17.4214 11.75 17.0072H10.25ZM11.75 9.67383C11.75 9.25961 11.4142 8.92383 11 8.92383C10.5857 8.92383 10.25 9.25961 10.25 9.67383H11.75ZM10.25 10.5905C10.25 11.0047 10.5857 11.3405 11 11.3405C11.4142 11.3405 11.75 11.0047 11.75 10.5905H10.25ZM10.25 16.0905V17.0072H11.75V16.0905H10.25ZM10.25 9.67383V10.5905H11.75V9.67383H10.25Z" fill="#4B465C"/>
<path d="M11.75 16.0905C11.75 15.6763 11.4142 15.3405 11 15.3405C10.5857 15.3405 10.25 15.6763 10.25 16.0905H11.75ZM10.25 17.0072C10.25 17.4214 10.5857 17.7572 11 17.7572C11.4142 17.7572 11.75 17.4214 11.75 17.0072H10.25ZM11.75 9.67383C11.75 9.25961 11.4142 8.92383 11 8.92383C10.5857 8.92383 10.25 9.25961 10.25 9.67383H11.75ZM10.25 10.5905C10.25 11.0047 10.5857 11.3405 11 11.3405C11.4142 11.3405 11.75 11.0047 11.75 10.5905H10.25ZM10.25 16.0905V17.0072H11.75V16.0905H10.25ZM10.25 9.67383V10.5905H11.75V9.67383H10.25Z" fill="white" fill-opacity="0.2"/>
</g>
</g>
</svg>
