<svg width="20" height="20" viewBox="0 0 20 20" fill="none" xmlns="http://www.w3.org/2000/svg">
<g id="message-dots">
<g id="Path">
<path d="M3.33325 17.5003V6.66699C3.33325 5.28628 4.45254 4.16699 5.83325 4.16699H14.1666C15.5473 4.16699 16.6666 5.28628 16.6666 6.66699V11.667C16.6666 13.0477 15.5473 14.167 14.1666 14.167H6.66659L3.33325 17.5003" stroke="#4B465C" stroke-width="1.5" stroke-linecap="round" stroke-linejoin="round"/>
<path d="M3.33325 17.5003V6.66699C3.33325 5.28628 4.45254 4.16699 5.83325 4.16699H14.1666C15.5473 4.16699 16.6666 5.28628 16.6666 6.66699V11.667C16.6666 13.0477 15.5473 14.167 14.1666 14.167H6.66659L3.33325 17.5003" stroke="white" stroke-opacity="0.2" stroke-width="1.5" stroke-linecap="round" stroke-linejoin="round"/>
</g>
<g id="Path_2">
<path d="M9.99992 9.16641V9.17474" stroke="#4B465C" stroke-width="1.5" stroke-linecap="round" stroke-linejoin="round"/>
<path d="M9.99992 9.16641V9.17474" stroke="white" stroke-opacity="0.2" stroke-width="1.5" stroke-linecap="round" stroke-linejoin="round"/>
</g>
<g id="Path_3">
<path d="M6.66667 9.16641V9.17474" stroke="#4B465C" stroke-width="1.5" stroke-linecap="round" stroke-linejoin="round"/>
<path d="M6.66667 9.16641V9.17474" stroke="white" stroke-opacity="0.2" stroke-width="1.5" stroke-linecap="round" stroke-linejoin="round"/>
</g>
<g id="Path_4">
<path d="M13.3334 9.16641V9.17474" stroke="#4B465C" stroke-width="1.5" stroke-linecap="round" stroke-linejoin="round"/>
<path d="M13.3334 9.16641V9.17474" stroke="white" stroke-opacity="0.2" stroke-width="1.5" stroke-linecap="round" stroke-linejoin="round"/>
</g>
</g>
</svg>
