<svg width="22" height="23" viewBox="0 0 22 23" fill="none" xmlns="http://www.w3.org/2000/svg">
<g id="message-circle-2">
<g id="Path">
<path d="M2.75 18.8403L3.94167 15.2653C1.81144 12.1147 2.63439 8.04904 5.86645 5.75606C9.09852 3.46308 13.741 3.65132 16.7248 6.19632C19.7086 8.74133 20.1118 12.8567 17.6677 15.8218C15.2237 18.7869 10.6876 19.6856 7.05833 17.9236L2.75 18.8403" stroke="#4B465C" stroke-width="1.5" stroke-linecap="round" stroke-linejoin="round"/>
<path d="M2.75 18.8403L3.94167 15.2653C1.81144 12.1147 2.63439 8.04904 5.86645 5.75606C9.09852 3.46308 13.741 3.65132 16.7248 6.19632C19.7086 8.74133 20.1118 12.8567 17.6677 15.8218C15.2237 18.7869 10.6876 19.6856 7.05833 17.9236L2.75 18.8403" stroke="white" stroke-opacity="0.2" stroke-width="1.5" stroke-linecap="round" stroke-linejoin="round"/>
</g>
<g id="Path_2">
<path d="M11 11.5084V11.5176" stroke="#4B465C" stroke-width="1.5" stroke-linecap="round" stroke-linejoin="round"/>
<path d="M11 11.5084V11.5176" stroke="white" stroke-opacity="0.2" stroke-width="1.5" stroke-linecap="round" stroke-linejoin="round"/>
</g>
<g id="Path_3">
<path d="M7.33333 11.5084V11.5176" stroke="#4B465C" stroke-width="1.5" stroke-linecap="round" stroke-linejoin="round"/>
<path d="M7.33333 11.5084V11.5176" stroke="white" stroke-opacity="0.2" stroke-width="1.5" stroke-linecap="round" stroke-linejoin="round"/>
</g>
<g id="Path_4">
<path d="M14.6667 11.5084V11.5176" stroke="#4B465C" stroke-width="1.5" stroke-linecap="round" stroke-linejoin="round"/>
<path d="M14.6667 11.5084V11.5176" stroke="white" stroke-opacity="0.2" stroke-width="1.5" stroke-linecap="round" stroke-linejoin="round"/>
</g>
</g>
</svg>
