<svg width="20" height="20" viewBox="0 0 20 20" fill="none" xmlns="http://www.w3.org/2000/svg">
<g id="paperclip">
<g id="Path">
<path d="M12.5 5.83339L7.08333 11.2501C6.39297 11.9404 6.39297 13.0597 7.08333 13.7501C7.77369 14.4404 8.89297 14.4404 9.58333 13.7501L15 8.33339C16.3807 6.95267 16.3807 4.7141 15 3.33339C13.6193 1.95267 11.3807 1.95267 10 3.33339L4.58333 8.75005C2.51226 10.8211 2.51226 14.179 4.58333 16.2501C6.6544 18.3211 10.0123 18.3211 12.0833 16.2501L17.5 10.8334" stroke="#4B465C" stroke-width="1.5" stroke-linecap="round" stroke-linejoin="round"/>
<path d="M12.5 5.83339L7.08333 11.2501C6.39297 11.9404 6.39297 13.0597 7.08333 13.7501C7.77369 14.4404 8.89297 14.4404 9.58333 13.7501L15 8.33339C16.3807 6.95267 16.3807 4.7141 15 3.33339C13.6193 1.95267 11.3807 1.95267 10 3.33339L4.58333 8.75005C2.51226 10.8211 2.51226 14.179 4.58333 16.2501C6.6544 18.3211 10.0123 18.3211 12.0833 16.2501L17.5 10.8334" stroke="white" stroke-opacity="0.2" stroke-width="1.5" stroke-linecap="round" stroke-linejoin="round"/>
</g>
</g>
</svg>
