<svg width="22" height="23" viewBox="0 0 22 23" fill="none" xmlns="http://www.w3.org/2000/svg">
<g id="smart-home">
<g id="Path">
<path d="M17.4167 8.49112L12.5281 4.68878C11.6456 4.00218 10.4095 4.00218 9.52696 4.68878L4.63746 8.49112C4.042 8.95419 3.69386 9.66637 3.69421 10.4207V17.0207C3.69421 18.0332 4.51503 18.854 5.52755 18.854H16.5275C17.5401 18.854 18.3609 18.0332 18.3609 17.0207V10.4207C18.3609 9.66628 18.0125 8.95403 17.4167 8.49112" stroke="#4B465C" stroke-width="1.5" stroke-linecap="round" stroke-linejoin="round"/>
<path d="M17.4167 8.49112L12.5281 4.68878C11.6456 4.00218 10.4095 4.00218 9.52696 4.68878L4.63746 8.49112C4.042 8.95419 3.69386 9.66637 3.69421 10.4207V17.0207C3.69421 18.0332 4.51503 18.854 5.52755 18.854H16.5275C17.5401 18.854 18.3609 18.0332 18.3609 17.0207V10.4207C18.3609 9.66628 18.0125 8.95403 17.4167 8.49112" stroke="white" stroke-opacity="0.2" stroke-width="1.5" stroke-linecap="round" stroke-linejoin="round"/>
</g>
<g id="Path_2">
<path d="M14.6667 14.2579C12.6409 15.4798 9.35737 15.4798 7.33337 14.2579" stroke="#4B465C" stroke-width="1.5" stroke-linecap="round" stroke-linejoin="round"/>
<path d="M14.6667 14.2579C12.6409 15.4798 9.35737 15.4798 7.33337 14.2579" stroke="white" stroke-opacity="0.2" stroke-width="1.5" stroke-linecap="round" stroke-linejoin="round"/>
</g>
</g>
</svg>
